%
M48
M72
T01C0.0120
T02C0.0240
T03C0.0315
T04C0.0320
T05C0.0354
T06C0.0360
T07C0.0400
T08C0.0440
T09C0.0591
T10C0.1260
%
T01
X6331Y5784
X10811Y2984
X15711Y7604
X15431Y7814
X16271Y11804
X16621Y13204
X16131Y14814
X17111Y16354
X17181Y17894
X13051Y19294
X9131Y21464
X7311Y20064
X12211Y13274
X14171Y12994
X8991Y10614
X6331Y11664
X3181Y11874
X21731Y8514
X22571Y17404
X27681Y18594
X27401Y25034
X27961Y25454
X28871Y26364
T02
X22501Y22444
X20611Y23634
X19491Y21814
X17671Y22724
X16271Y23704
X13121Y21324
X16061Y21114
X17741Y19854
X17951Y18174
X17601Y17824
X16061Y17964
X15501Y16844
X15151Y16424
X15151Y15444
X14451Y15234
X11861Y14114
X10671Y13764
X10531Y12294
X11721Y11174
X12981Y11594
X14591Y11944
X18021Y14464
X18441Y13484
X18441Y15584
X18301Y16424
X20891Y18664
X22221Y19014
X21801Y20134
X23341Y21114
X24601Y19644
X26561Y19434
X27821Y20694
X29711Y20204
X24251Y17824
X24041Y15374
X23271Y14324
X22221Y12224
X21311Y11944
X24111Y11874
X24391Y8934
X23761Y8584
X21101Y8234
X18441Y7324
X15641Y9144
X13331Y8864
X11651Y8304
X9831Y8654
X9831Y9354
X6961Y10824
X5911Y9424
X6471Y8444
X4931Y7744
X2341Y5994
X3881Y3544
X5911Y3614
X5911Y4104
X5841Y5154
X7731Y3474
X8151Y3194
X8991Y2844
X9201Y4944
X10531Y6134
X10951Y6414
X11861Y5854
X12561Y3264
X13541Y2774
X13051Y1794
X18441Y9984
X10601Y16564
X11791Y17404
X10251Y18874
X11651Y19014
X9411Y20624
X6681Y19434
X7101Y17754
X6751Y15304
X7801Y13624
X7311Y13414
X2691Y11314
X2621Y15584
X7101Y25804
X7591Y25804
X34611Y5014
X30551Y1234
T03
X12251Y1584
X11251Y1584
X10251Y1584
X9251Y1584
X8251Y1584
X11991Y22064
X11991Y23064
X11991Y24064
X11991Y25064
T04
X13751Y25914
X14751Y25914
X15711Y25574
X17161Y24034
X18161Y24034
X17661Y23284
X15711Y22574
X17191Y21654
X16701Y20644
X16701Y19644
X16701Y18644
X18536Y18647
X18536Y19647
X18536Y20647
X19871Y21044
X20971Y21074
X20971Y19914
X19831Y19944
X23311Y18644
X24311Y18644
X25311Y18644
X26231Y18674
X27231Y18674
X28231Y18674
X29161Y18644
X30161Y18644
X31161Y18644
X32101Y18634
X33101Y18634
X34101Y18634
X34111Y20764
X32921Y20774
X31729Y20748
X30561Y20704
X29361Y20654
X27221Y20694
X24251Y20624
X24251Y23624
X27221Y23694
X29361Y23654
X30561Y23704
X31729Y23748
X32921Y23774
X34111Y23764
X23621Y25994
X22621Y25994
X21541Y25314
X20971Y24074
X19871Y24044
X18541Y25314
X14191Y21654
X14761Y20674
X14761Y19674
X14761Y18674
X12811Y18734
X12811Y19734
X12811Y20734
X10984Y20223
X9844Y20223
X8854Y20213
X8854Y19213
X8854Y18213
X8854Y17213
X9844Y17223
X10984Y17223
X10998Y15624
X9821Y15624
X8814Y15659
X8814Y14659
X8814Y13659
X8814Y12659
X9821Y12624
X10998Y12624
X10961Y11334
X9961Y11334
X10381Y10014
X11381Y10014
X12381Y10014
X13381Y10014
X14381Y10014
X15381Y10014
X16381Y10014
X17381Y10014
X19841Y10074
X22841Y10074
X22761Y13150
X19761Y13150
X19831Y16944
X20971Y16914
X9381Y10014
X8381Y10014
X7381Y10014
X6381Y10014
X5381Y10014
X4381Y10014
X4821Y12584
X5814Y12659
X5814Y13659
X5814Y14659
X5814Y15659
X4821Y15584
X3761Y15624
X3734Y17273
X4824Y17323
X5854Y17213
X5854Y18213
X5854Y19213
X5854Y20213
X4824Y20323
X3734Y20273
X2351Y20894
X2351Y17894
X3761Y12624
X4381Y7014
X5381Y7014
X6381Y7014
X7381Y7014
X8381Y7014
X9381Y7014
X10381Y7014
X11381Y7014
X12381Y7014
X13381Y7014
X14381Y7014
X15381Y7014
X16381Y7014
X17381Y7014
X19671Y6914
X22671Y6914
X22741Y4004
X19741Y4004
X6871Y5704
X5871Y5704
X3978Y5536
X978Y5536
X4371Y25894
X5371Y25894
T05
X1541Y15054
X1541Y14054
X1541Y13054
X1531Y9674
X1531Y8674
X1531Y7674
X4025Y2464
X5757Y2464
T06
X13501Y4084
X13501Y5084
X15341Y5064
X15341Y4064
X17131Y1594
X18131Y1594
T07
X24261Y3904
X25261Y3904
X26261Y3904
X29951Y3814
X30951Y3814
X31951Y3814
X31899Y6947
X30899Y6947
X29899Y6947
X26271Y6964
X25271Y6964
X24271Y6964
X24261Y10074
X25261Y10074
X26261Y10074
X29891Y9904
X30891Y9904
X31891Y9904
X31951Y12904
X30951Y12904
X29951Y12904
X26261Y13164
X25261Y13164
X24261Y13164
X8621Y22394
X8621Y24394
T08
X12911Y17134
X12971Y15554
X12981Y13994
X12981Y12494
X16981Y12494
X16981Y13994
X16971Y15554
X16911Y17134
T09
X37401Y13464
X37401Y11464
X37401Y9464
X37401Y7464
X37401Y5464
X37401Y3464
T10
X1071Y1454
X21451Y2294
X33201Y2294
X38451Y1384
X33201Y14794
X21451Y14794
X38451Y26374
X1071Y26374
M30
