G75*
G70*
%OFA0B0*%
%FSLAX24Y24*%
%IPPOS*%
%LPD*%
%AMOC8*
5,1,8,0,0,1.08239X$1,22.5*
%
%ADD10C,0.0040*%
D10*
X008021Y002512D02*
X008481Y002512D01*
X008328Y002666D01*
X008481Y002819D01*
X008021Y002819D01*
X008097Y002972D02*
X008021Y003049D01*
X008021Y003203D01*
X008097Y003279D01*
X008021Y003433D02*
X008021Y003740D01*
X008021Y003893D02*
X008481Y003893D01*
X008481Y004123D01*
X008404Y004200D01*
X008251Y004200D01*
X008174Y004123D01*
X008174Y003893D01*
X008174Y004047D02*
X008021Y004200D01*
X009021Y003623D02*
X009097Y003700D01*
X009021Y003623D02*
X009021Y003470D01*
X009097Y003393D01*
X009404Y003393D01*
X009481Y003470D01*
X009481Y003623D01*
X009404Y003700D01*
X009404Y003240D02*
X009481Y003163D01*
X009481Y003010D01*
X009404Y002933D01*
X009097Y002933D01*
X009021Y003010D01*
X009021Y003163D01*
X009097Y003240D01*
X009174Y002779D02*
X009481Y002779D01*
X009174Y002779D02*
X009021Y002626D01*
X009174Y002472D01*
X009481Y002472D01*
X010021Y002549D02*
X010097Y002472D01*
X010404Y002472D01*
X010481Y002549D01*
X010481Y002703D01*
X010404Y002779D01*
X010251Y002779D02*
X010251Y002626D01*
X010251Y002779D02*
X010097Y002779D01*
X010021Y002703D01*
X010021Y002549D01*
X010021Y002933D02*
X010481Y002933D01*
X010021Y003240D01*
X010481Y003240D01*
X010481Y003393D02*
X010021Y003393D01*
X010021Y003623D01*
X010097Y003700D01*
X010404Y003700D01*
X010481Y003623D01*
X010481Y003393D01*
X011021Y003393D02*
X011021Y003623D01*
X011097Y003700D01*
X011404Y003700D01*
X011481Y003623D01*
X011481Y003393D01*
X011021Y003393D01*
X011097Y003240D02*
X011021Y003163D01*
X011021Y003010D01*
X011097Y002933D01*
X011404Y002933D01*
X011481Y003010D01*
X011481Y003163D01*
X011404Y003240D01*
X011251Y003240D02*
X011251Y003086D01*
X011251Y003240D02*
X011097Y003240D01*
X011251Y002779D02*
X011174Y002703D01*
X011174Y002472D01*
X011021Y002472D02*
X011481Y002472D01*
X011481Y002703D01*
X011404Y002779D01*
X011251Y002779D01*
X012021Y003010D02*
X012021Y003163D01*
X012097Y003240D01*
X012251Y003240D01*
X012251Y003086D01*
X012404Y002933D02*
X012097Y002933D01*
X012021Y003010D01*
X012251Y002779D02*
X012174Y002703D01*
X012174Y002472D01*
X012021Y002472D02*
X012481Y002472D01*
X012481Y002703D01*
X012404Y002779D01*
X012251Y002779D01*
X012404Y002933D02*
X012481Y003010D01*
X012481Y003163D01*
X012404Y003240D01*
X012404Y003393D02*
X012097Y003393D01*
X012021Y003470D01*
X012021Y003623D01*
X012097Y003700D01*
X012404Y003700D02*
X012481Y003623D01*
X012481Y003470D01*
X012404Y003393D01*
X013273Y001814D02*
X013196Y001737D01*
X013196Y001584D01*
X013273Y001507D01*
X013503Y001507D01*
X013503Y001354D02*
X013503Y001814D01*
X013273Y001814D01*
X013657Y001737D02*
X013733Y001814D01*
X013887Y001814D01*
X013964Y001737D01*
X013964Y001661D01*
X013887Y001584D01*
X013733Y001584D01*
X013657Y001507D01*
X013657Y001430D01*
X013733Y001354D01*
X013887Y001354D01*
X013964Y001430D01*
X014117Y001430D02*
X014194Y001354D01*
X014347Y001354D01*
X014424Y001430D01*
X014424Y001737D01*
X014347Y001814D01*
X014194Y001814D01*
X014117Y001737D01*
X014577Y001814D02*
X014731Y001814D01*
X014654Y001814D02*
X014654Y001354D01*
X014731Y001354D02*
X014577Y001354D01*
X008481Y003049D02*
X008404Y002972D01*
X008097Y002972D01*
X008481Y003049D02*
X008481Y003203D01*
X008404Y003279D01*
X008481Y003433D02*
X008021Y003433D01*
M02*
